<?xml version="1.0" encoding="UTF-8"?>
<svg id="Ebene_1" data-name="Ebene 1" xmlns="http://www.w3.org/2000/svg" width="30mm" height="42mm" viewBox="0 0 85.04 119.06">
  <defs>
    <style>
      .cls-1 {
        fill: #1d1e1c;
      }
    </style>
  </defs>
  <path class="cls-1" d="M59.77,44.37l-.71,16.5c-.14,0-.29,0-.43,.01-.37,.05-.71,.16-1.03,.31l-7.24-15.11,5.83-3.73c.88,1.1,2.15,1.83,3.58,2.01m-4.17-7.94c-.32,.62-.52,1.31-.59,2.03l-9.42-2.33-1.94-4.06c.52-.34,.94-.81,1.24-1.35l10.72,5.71Zm-29.63-6.91h11.84c.23,1.37,1.17,2.45,2.39,2.92l-.38,2.27-14.25-3.52c.21-.53,.36-1.08,.4-1.66m-2.12,3.94c.52-.4,.95-.89,1.29-1.44l14.52,3.59-2.04,12.18c-.47-.04-.94-.03-1.43,.03-.92,.12-1.78,.43-2.54,.87l-9.81-15.23Zm21.1,3.45l4.24,8.85-6.92,4.42c-.96-1.14-2.28-1.93-3.75-2.25l2.03-12.11,4.4,1.09Zm-2.12-4.42l1.61,3.36-3.74-.92,.38-2.26c.32,.04,.64,.05,.97,0,.27-.04,.53-.1,.78-.19m12.84,9.13l-5.71,3.65-3.87-8.07,8.92,2.2c0,.09,0,.18,0,.27,.09,.71,.32,1.36,.65,1.94m-12.31,15.55c.43-1.06,.63-2.23,.47-3.45-.14-1.03-.51-1.97-1.03-2.79l6.78-4.34,7.22,15.08c-.49,.38-.88,.86-1.14,1.43l-12.3-5.93Zm22.45-18.92c-.39-3-3.13-5.11-6.11-4.72-1.49,.2-2.76,.98-3.61,2.09l-10.87-5.79c.12-.46,.16-.95,.09-1.45-.28-2.1-2.19-3.58-4.28-3.3-1.83,.24-3.18,1.75-3.3,3.52h-11.81c0-.05,0-.11,0-.17-.39-3-3.13-5.11-6.11-4.72-2.98,.39-5.08,3.15-4.69,6.14,.39,3,3.13,5.11,6.11,4.72,.67-.09,1.28-.31,1.84-.61l9.83,15.26c-1.84,1.44-2.91,3.78-2.59,6.28,.49,3.75,3.91,6.39,7.64,5.89,2.19-.29,3.98-1.61,5-3.41l12.42,5.99c-.08,.39-.11,.8-.05,1.22,.28,2.1,2.19,3.58,4.28,3.3,2.09-.28,3.56-2.2,3.28-4.3-.21-1.63-1.43-2.88-2.93-3.23l.71-16.57c.15,0,.3,0,.45-.01,2.98-.4,5.08-3.15,4.69-6.15"/>
  <path class="cls-1" d="M70.05,44.25c0,15.58-11.71,28.54-27.53,28.56-15.82-.02-27.53-12.99-27.53-28.56S26.7,15.71,42.52,15.69c15.82,.02,27.53,12.99,27.53,28.57m12.31-.33c0-21.66-16.88-40.21-39.7-40.21-.05,0-.09,0-.14,0s-.09,0-.14,0C19.56,3.72,2.68,22.27,2.68,43.93c0,32.91,39.82,71.41,39.82,71.41l.02-.06,.02,.06s39.82-38.5,39.82-71.41"/>
</svg>