<?xml version="1.0" encoding="UTF-8" standalone="no"?>
<svg
   id="Ebene_1"
   data-name="Ebene 1"
   width="179.95mm"
   height="42mm"
   viewBox="0 0 510.08 119.06"
   version="1.1"
   sodipodi:docname="optimap_logo_w.svg"
   inkscape:version="1.1.1 (3bf5ae0d25, 2021-09-20)"
   xmlns:inkscape="http://www.inkscape.org/namespaces/inkscape"
   xmlns:sodipodi="http://sodipodi.sourceforge.net/DTD/sodipodi-0.dtd"
   xmlns="http://www.w3.org/2000/svg"
   xmlns:svg="http://www.w3.org/2000/svg">
  <sodipodi:namedview
     id="namedview23"
     pagecolor="#ffffff"
     bordercolor="#666666"
     borderopacity="1.0"
     inkscape:pageshadow="2"
     inkscape:pageopacity="0.0"
     inkscape:pagecheckerboard="0"
     inkscape:document-units="mm"
     showgrid="false"
     inkscape:zoom="1.852598"
     inkscape:cx="334.93505"
     inkscape:cy="79.617921"
     inkscape:window-width="3794"
     inkscape:window-height="2096"
     inkscape:window-x="46"
     inkscape:window-y="27"
     inkscape:window-maximized="1"
     inkscape:current-layer="Ebene_1" />
  <defs
     id="defs4">
    <style
       id="style2">
      .cls-1 {
        fill: #1d1e1c;
      }

      .cls-2 {
        fill: #1d1d1b;
      }
    </style>
  </defs>
  <path
     class="cls-1"
     d="M332.17,82.17h13.51V6.31h-11.76l-10.48,14.87c-5.24,7.49-17,24.23-17,24.23,0,0-11.76-16.86-17.12-24.35l-10.48-14.75h-11.76V82.17h13.51V29.49s2.45,4.33,7.1,11.12l18.74,26.92,18.51-26.69c4.89-7.14,7.22-11.35,7.22-11.35v52.68Z"
     id="path6"
     style="fill:#ffffff;fill-opacity:1" />
  <rect
     class="cls-1"
     x="239.87"
     y="6.31"
     width="13.51"
     height="75.86"
     id="rect8"
     style="fill:#ffffff;fill-opacity:1" />
  <polygon
     class="cls-1"
     points="203.56 18.02 230.1 18.02 230.1 6.31 163.5 6.31 163.5 18.02 190.05 18.02 190.05 82.17 203.56 82.17 203.56 18.02"
     id="polygon10"
     style="fill:#ffffff;fill-opacity:1" />
  <path
     class="cls-1"
     d="M146.4,35.14c0,9.48-6.99,17.21-18.28,17.21h-19.09V17.93h19.21c11.18,0,18.16,7.73,18.16,17.21m14.09,0c0-15.92-11.53-28.91-33.18-28.91h-31.78V82.08h13.51v-18.03h18.16c21.77,0,33.3-12.88,33.3-28.92"
     id="path12"
     style="fill:#ffffff;fill-opacity:1" />
  <path
     class="cls-1"
     d="M59.92,44.37l-.71,16.5c-.14,0-.29,0-.43,.01-.37,.05-.71,.16-1.03,.31l-7.24-15.11,5.83-3.73c.88,1.1,2.15,1.83,3.58,2.01m-4.17-7.94c-.32,.62-.52,1.31-.59,2.03l-9.42-2.33-1.94-4.06c.52-.34,.94-.81,1.24-1.35l10.72,5.71Zm-29.63-6.91h11.84c.23,1.37,1.17,2.45,2.39,2.92l-.38,2.27-14.25-3.52c.21-.53,.36-1.08,.4-1.66m-2.12,3.94c.52-.4,.95-.89,1.29-1.44l14.52,3.59-2.04,12.18c-.47-.04-.94-.03-1.43,.03-.92,.12-1.78,.43-2.54,.87l-9.81-15.23Zm21.1,3.45l4.24,8.85-6.92,4.42c-.96-1.14-2.28-1.93-3.75-2.25l2.03-12.11,4.4,1.09Zm-2.12-4.42l1.61,3.36-3.74-.92,.38-2.26c.32,.04,.64,.05,.97,0,.27-.04,.53-.1,.78-.19m12.84,9.13l-5.71,3.65-3.87-8.07,8.92,2.2c0,.09,0,.18,0,.27,.09,.71,.32,1.36,.65,1.94m-12.31,15.55c.43-1.06,.63-2.23,.47-3.45-.14-1.03-.51-1.97-1.03-2.79l6.78-4.34,7.22,15.08c-.49,.38-.88,.86-1.14,1.43l-12.3-5.93Zm22.45-18.92c-.39-3-3.13-5.11-6.11-4.72-1.49,.2-2.76,.98-3.61,2.09l-10.87-5.79c.12-.46,.16-.95,.09-1.45-.28-2.1-2.19-3.58-4.28-3.3-1.83,.24-3.18,1.75-3.3,3.52h-11.81c0-.05,0-.11,0-.17-.39-3-3.13-5.11-6.11-4.72-2.98,.39-5.08,3.15-4.69,6.14,.39,3,3.13,5.11,6.11,4.72,.67-.09,1.28-.31,1.84-.61l9.83,15.26c-1.84,1.44-2.91,3.78-2.59,6.28,.49,3.75,3.91,6.39,7.64,5.89,2.19-.29,3.98-1.61,5-3.41l12.42,5.99c-.08,.39-.11,.8-.05,1.22,.28,2.1,2.19,3.58,4.28,3.3,2.09-.28,3.56-2.2,3.28-4.3-.21-1.63-1.43-2.88-2.93-3.23l.71-16.57c.15,0,.3,0,.45-.01,2.98-.4,5.08-3.15,4.69-6.15"
     id="path14"
     style="fill:#ffffff;fill-opacity:1" />
  <path
     class="cls-1"
     d="M70.2,44.25c0,15.58-11.71,28.54-27.53,28.56-15.82-.02-27.53-12.99-27.53-28.56S26.85,15.71,42.67,15.69c15.82,.02,27.53,12.99,27.53,28.57m12.31-.33c0-21.66-16.88-40.21-39.7-40.21-.05,0-.09,0-.14,0s-.09,0-.14,0C19.72,3.72,2.83,22.27,2.83,43.93c0,32.91,39.82,71.41,39.82,71.41l.02-.06,.02,.06s39.82-38.5,39.82-71.41"
     id="path16"
     style="fill:#ffffff;fill-opacity:1" />
  <path
     class="cls-2"
     d="M385.5,6.23h12.89l34.22,75.94h-13.83l-5.98-13.13h-41.72l-5.98,13.13h-13.83L385.5,6.23Zm22.62,52.03l-8.67-19.69c-3.28-7.5-7.5-17.7-7.5-17.7,0,0-4.1,10.08-7.5,17.7l-8.67,19.69h32.35Z"
     id="path18"
     style="fill:#ffffff;fill-opacity:1" />
  <path
     class="cls-2"
     d="M438.09,6.23h31.99c21.8,0,33.4,13.01,33.4,28.95s-11.6,28.95-33.52,28.95h-18.28v18.05h-13.59V6.23Zm32.81,46.17c11.37,0,18.4-7.73,18.4-17.23s-7.03-17.23-18.28-17.23h-19.34V52.4h19.22Z"
     id="path20"
     style="fill:#ffffff;fill-opacity:1" />
</svg>
